<svg width="123" height="24" fill="none" xmlns="http://www.w3.org/2000/svg"><path d="M.744 9.36c0-1.04.184-2.064.552-3.072a8.885 8.885 0 0 1 1.656-2.736 7.869 7.869 0 0 1 2.64-1.944c1.04-.496 2.224-.744 3.552-.744 1.552 0 2.904.344 4.056 1.032 1.152.688 2.008 1.584 2.568 2.688l-2.544 1.752c-.288-.64-.664-1.144-1.128-1.512a4.428 4.428 0 0 0-1.512-.792 5.286 5.286 0 0 0-1.536-.24c-.832 0-1.56.168-2.184.504a4.886 4.886 0 0 0-1.536 1.32 5.8 5.8 0 0 0-.936 1.824 7.308 7.308 0 0 0-.288 2.016c0 1.008.208 1.952.624 2.832.416.864 1 1.568 1.752 2.112s1.624.816 2.616.816c.512 0 1.04-.088 1.584-.264a4.513 4.513 0 0 0 1.536-.84c.464-.384.824-.88 1.08-1.488l2.712 1.56a5.306 5.306 0 0 1-1.656 2.16 8.789 8.789 0 0 1-2.544 1.344A9.12 9.12 0 0 1 9 18.144c-1.216 0-2.328-.248-3.336-.744a8.848 8.848 0 0 1-2.592-2.016 9.901 9.901 0 0 1-1.728-2.832 8.95 8.95 0 0 1-.6-3.192Zm24.661-1.152c-.976 0-1.848.192-2.616.576-.768.368-1.32.904-1.656 1.608V18h-3.216V5.424h2.952v2.688c.432-.864.992-1.544 1.68-2.04.704-.496 1.44-.768 2.208-.816.336 0 .552.008.648.024v2.928Zm2.057 12.24c.592.16 1.072.24 1.44.24.432 0 .776-.184 1.032-.552.272-.352.576-1.064.912-2.136L25.878 5.424h3.336l3.384 9.288 2.976-9.288h3.072l-5.28 15.072a4.313 4.313 0 0 1-1.56 2.136c-.736.576-1.648.864-2.736.864a5.204 5.204 0 0 1-1.608-.264v-2.784ZM47.93 18.24c-.992 0-1.856-.224-2.592-.672a4.838 4.838 0 0 1-1.728-1.776v7.32h-3.216V5.424h2.808v2.16a5.029 5.029 0 0 1 1.8-1.728c.752-.432 1.6-.648 2.544-.648 1.136 0 2.144.296 3.024.888.88.576 1.576 1.36 2.088 2.352.512.976.768 2.056.768 3.24 0 1.232-.24 2.344-.72 3.336-.464.976-1.112 1.76-1.944 2.352-.816.576-1.76.864-2.832.864Zm-1.08-2.736c.656 0 1.224-.176 1.704-.528.496-.368.88-.84 1.152-1.416a4.226 4.226 0 0 0 .432-1.872c0-.704-.152-1.336-.456-1.896a3.377 3.377 0 0 0-1.248-1.344c-.512-.336-1.104-.504-1.776-.504-.608 0-1.216.2-1.824.6-.608.4-1.016.904-1.224 1.512v2.952a4.393 4.393 0 0 0 1.32 1.776c.592.48 1.232.72 1.92.72Zm16.127 1.848c-.432.192-.968.384-1.608.576a6.573 6.573 0 0 1-1.944.288 4.178 4.178 0 0 1-1.632-.312 2.67 2.67 0 0 1-1.2-.984c-.288-.464-.432-1.064-.432-1.8V7.896h-1.656V5.424h1.656v-4.08h3.216v4.08h2.64v2.472h-2.64v6.144c0 .432.112.744.336.936.24.192.528.288.864.288.336 0 .664-.056.984-.168.32-.112.576-.208.768-.288l.648 2.544Zm7.318.888c-1.376 0-2.56-.296-3.552-.888a6.246 6.246 0 0 1-2.256-2.4 6.74 6.74 0 0 1-.792-3.216c0-1.168.264-2.248.792-3.24a6.25 6.25 0 0 1 2.28-2.376c.992-.608 2.168-.912 3.528-.912 1.36 0 2.528.304 3.504.912a6.023 6.023 0 0 1 2.28 2.376c.528.992.792 2.072.792 3.24a6.74 6.74 0 0 1-.792 3.216 6.191 6.191 0 0 1-2.28 2.4c-.976.592-2.144.888-3.504.888Zm-3.288-6.504c0 .736.144 1.392.432 1.968.288.56.68 1 1.176 1.32.496.32 1.056.48 1.68.48.608 0 1.16-.16 1.656-.48a3.553 3.553 0 0 0 1.176-1.344c.304-.576.456-1.232.456-1.968 0-.72-.152-1.36-.456-1.92-.288-.576-.68-1.024-1.176-1.344a2.887 2.887 0 0 0-1.656-.504c-.624 0-1.184.168-1.68.504-.496.32-.888.768-1.176 1.344-.288.56-.432 1.208-.432 1.944Z" fill="#fff"/><path d="M78.322 9.36c0-1.04.184-2.064.552-3.072a8.885 8.885 0 0 1 1.656-2.736 7.869 7.869 0 0 1 2.64-1.944c1.04-.496 2.224-.744 3.552-.744 1.552 0 2.904.344 4.056 1.032 1.152.688 2.008 1.584 2.568 2.688l-2.544 1.752c-.288-.64-.664-1.144-1.128-1.512a4.428 4.428 0 0 0-1.512-.792 5.286 5.286 0 0 0-1.536-.24c-.832 0-1.56.168-2.184.504a4.886 4.886 0 0 0-1.536 1.32 5.8 5.8 0 0 0-.936 1.824 7.308 7.308 0 0 0-.288 2.016c0 1.008.208 1.952.624 2.832.416.864 1 1.568 1.752 2.112s1.624.816 2.616.816c.512 0 1.04-.088 1.584-.264a4.513 4.513 0 0 0 1.536-.84c.464-.384.824-.88 1.08-1.488l2.712 1.56a5.306 5.306 0 0 1-1.656 2.16 8.789 8.789 0 0 1-2.544 1.344 9.12 9.12 0 0 1-2.808.456c-1.216 0-2.328-.248-3.336-.744a8.848 8.848 0 0 1-2.592-2.016 9.901 9.901 0 0 1-1.728-2.832 8.95 8.95 0 0 1-.6-3.192Zm16.31 4.92c0-.816.223-1.528.671-2.136.464-.624 1.104-1.104 1.92-1.44.816-.336 1.752-.504 2.808-.504a9.24 9.24 0 0 1 1.608.144c.544.08 1.016.2 1.416.36v-.672c0-.8-.24-1.416-.72-1.848-.464-.432-1.16-.648-2.088-.648-.688 0-1.344.12-1.968.36-.624.24-1.28.592-1.968 1.056L95.28 6.84c.832-.544 1.68-.952 2.544-1.224.88-.272 1.8-.408 2.76-.408 1.792 0 3.184.448 4.176 1.344 1.008.896 1.512 2.176 1.512 3.84V14.4c0 .352.056.6.168.744.112.128.312.208.6.24V18a5.305 5.305 0 0 1-.792.12 4.164 4.164 0 0 1-.576.048c-.64 0-1.128-.144-1.464-.432a1.696 1.696 0 0 1-.6-1.056l-.072-.648a5.607 5.607 0 0 1-2.064 1.656c-.8.368-1.624.552-2.472.552-.848 0-1.6-.168-2.256-.504a4.17 4.17 0 0 1-1.56-1.416 3.863 3.863 0 0 1-.552-2.04Zm7.823.648c.4-.384.6-.752.6-1.104v-1.272a6.68 6.68 0 0 0-2.52-.504c-.848 0-1.536.184-2.064.552-.528.352-.792.824-.792 1.416 0 .48.192.912.576 1.296.384.384.936.576 1.656.576.48 0 .944-.088 1.392-.264a3.408 3.408 0 0 0 1.152-.696Zm14.358 3.312c-.992 0-1.856-.224-2.592-.672a4.838 4.838 0 0 1-1.728-1.776v7.32h-3.216V5.424h2.808v2.16a5.029 5.029 0 0 1 1.8-1.728c.752-.432 1.6-.648 2.544-.648 1.136 0 2.144.296 3.024.888.88.576 1.576 1.36 2.088 2.352.512.976.768 2.056.768 3.24 0 1.232-.24 2.344-.72 3.336-.464.976-1.112 1.76-1.944 2.352-.816.576-1.76.864-2.832.864Zm-1.08-2.736c.656 0 1.224-.176 1.704-.528.496-.368.88-.84 1.152-1.416a4.226 4.226 0 0 0 .432-1.872c0-.704-.152-1.336-.456-1.896a3.377 3.377 0 0 0-1.248-1.344c-.512-.336-1.104-.504-1.776-.504-.608 0-1.216.2-1.824.6-.608.4-1.016.904-1.224 1.512v2.952a4.4 4.4 0 0 0 1.319 1.776c.593.48 1.233.72 1.921.72Z" fill="#0FAE96"/></svg>