<svg width="24" height="24" fill="none" xmlns="http://www.w3.org/2000/svg"><path d="M2 12.06c0 2.396.85 4.713 2.397 6.535A9.99 9.99 0 0 0 10.437 22v-7.032H7.9V12.06h2.54V9.847a3.57 3.57 0 0 1 .972-2.853 3.527 3.527 0 0 1 2.801-1.072c.75.013 1.5.08 2.24.202v2.474h-1.264a1.438 1.438 0 0 0-1.19.393 1.455 1.455 0 0 0-.438 1.18v1.89h2.771l-.443 2.908h-2.328V22a9.975 9.975 0 0 0 5.08-2.415 10.071 10.071 0 0 0 2.983-4.79c.519-1.85.5-3.811-.054-5.651a10.068 10.068 0 0 0-3.074-4.732A9.945 9.945 0 0 0 7.815 2.923 10.019 10.019 0 0 0 3.58 6.636 10.107 10.107 0 0 0 2 12.06Z" fill="#B6B6B6"/></svg>