<svg width="24" height="24" fill="none" xmlns="http://www.w3.org/2000/svg"><path d="M4.252 10a8.047 8.047 0 0 0 0 4H7.1a19.83 19.83 0 0 1 0-4H4.252Zm.818-2h2.346c.266-1.217.65-2.307 1.121-3.214A8.035 8.035 0 0 0 5.07 8Zm14.678 2H16.9c.135 1.33.135 2.67 0 4h2.848a8.046 8.046 0 0 0 0-4Zm-.818-2a8.035 8.035 0 0 0-3.467-3.214c.472.907.855 1.997 1.121 3.214h2.346Zm-9.818 2a17.763 17.763 0 0 0 0 4h5.776c.15-1.33.15-2.67 0-4H9.112Zm.358-2h5.06a10.759 10.759 0 0 0-.783-2.177C13.119 4.568 12.447 4 12 4c-.448 0-1.119.568-1.747 1.823-.315.632-.58 1.367-.783 2.177Zm-4.4 8a8.035 8.035 0 0 0 3.467 3.214c-.472-.907-.855-1.997-1.121-3.214H5.07Zm13.86 0h-2.346c-.266 1.217-.65 2.307-1.121 3.214A8.035 8.035 0 0 0 18.93 16Zm-9.46 0c.203.81.468 1.545.783 2.177C10.881 19.432 11.553 20 12 20c.448 0 1.119-.568 1.747-1.823.315-.632.58-1.367.783-2.177H9.47ZM12 22C6.477 22 2 17.523 2 12S6.477 2 12 2s10 4.477 10 10-4.477 10-10 10Z" fill="#C6C6C6"/></svg>